<svg xmlns="http://www.w3.org/2000/svg" viewBox="0 0 32 32" fill="none" role="img" aria-label="Sturdee">
  <rect width="32" height="32" rx="7" fill="#10B981"/>
  <path
    fill="#ffffff"
    d="M17.2 8.2c2.8 0 5.1 1.4 6.1 3.6h-3.1c-.7-1.4-2.1-2.3-4-2.3-2.5 0-4.2 1.3-4.2 3.2 0 1.7 1.2 2.8 3.8 3.3l2.2.5c3.2.7 4.9 2.2 4.9 4.8 0 3.1-2.8 5.4-6.9 5.4-3.4 0-6.3-1.6-7.5-4.2h3.2c.9 1.6 2.6 2.5 4.6 2.5 2.7 0 4.5-1.3 4.5-3.3 0-1.8-1.2-2.8-3.7-3.3l-2.2-.5c-3.3-.7-5-2.3-5-4.9 0-2.9 2.5-5.2 6.5-5.2z"
  />
</svg>
